/* XPM */
static char * exit_xpm[] = {
"45 45 13 1",
" 	c #327404",
".	c #347704",
"+	c #337903",
"@	c #327105",
"#	c #357B05",
"$	c #000000",
"%	c #A96C3F",
"&	c #7D4C28",
"*	c #2C3515",
"=	c #341F12",
"-	c #88A92C",
";	c #62791E",
">	c #475326",
" ..... +++.....  ..... +++       ..... +++   ",
"@@@.............#### ....       @@@......   .",
".@@@  .........+###@@......@  ...@@@  .....@ ",
"@++++ ....####.+++  ......@@ ...@++++ ....@@ ",
"..++@ ...  ###+++++++ .. @@ ...@..++@ .. @@ .",
"...@@ ....  #+++.+++  .. ..........@@ .. ....",
"..@@+++..+++ ++..+$$$$$$$$$$......@@+++   ...",
".  +++  . +++.+..$%%%%%%%%%%$....  +++  .. ..",
"..+++  ....+++..$%%%%%%%%%%%%$....+++  ......",
"....++.........$%&&$$$$$$$$&&%$.....++.......",
"...++ ....... $%&$$***$$***$$&%$...++  ..  .#",
"........ @@  $%&=----;$$;----=&%$ ....++++ ##",
"......... ..$%&=-;>;;>$$>;;>;-=&%$ ... ++++##",
"..  ........$&=;;;>;;>$$>;;>;;;=&$....  +++++",
"   ..+++....$&=;;;>;;>$$>;;>;;;=&$++.+++.+++.",
"..... +++ .@$&=;;;>;;>$$>;;>;;;=&$+@@ +++.+.+",
" ..... +++  $&=;;;>;;>$$>;;>;;;=&$@    +++...",
"@@@......   $&=;;;>;;>$$>;;>;;;=&$@..........",
".@@@  .....@$&=;;;>;;>$$>;;>;;;=&$... .......",
"@++++ ....@@$&=;;;>;;*$$*;;>;;;=&$..@@....###",
"..++@ .. @@ $&=;;;>;>$**$>;>;;;=&$.  ....  ##",
"...@@ .. ...$&=;;;>;$$**$$;>;;;=&$........  #",
"..@@+++   ..$&=;;;>;$$**$$;>;;;=&$ .+++..+++ ",
".  +++  .. .$&=;;;>;>$**$>;>;;;=&$.+++  . +++",
"..+++  .....$&=;;;>;;*$$*;;>;;;=&$+++  ....++",
"....++......$&=;;;>;;>$$>;;>;;;=&$..++.......",
"...++ ......$&=;;;>;;>$$>;;>;;;=&$.++  ..  .#",
"........ @@ $&=;;;>;;>$$>;;>;;;=&$....++++ ##",
"......... ..$&=;;;>;;>$$>;;>;;;=&$ ... ++++##",
"..  ........$&=;;;>;;>$$>;;>;;;=&$....  +++++",
"   ..+++....$&=;;;>;;>$$>;;>;;;=&$++.+++.+++.",
"..... +++ .@$&=;;;>;;>$$>;;>;;;=&$+@@ +++.+.+",
" ..... +++  $&=;;;>;;>$$>;;>;;;=&$@    +++...",
"@@@......   $&========$$========&$@..........",
".@@@  .....@$&&%%%%%%%%%%%%%%%%&&$... .......",
"@++++ ....@@$&&&&&&&&&&&&&&&&&&&&$..@@....###",
"..++@ .. @@ $&&&&&&&&&&&&&&&&&&&&$.  ....  ##",
"...@@ .. ...$$$$$$$$$$$$$$$$$$$$$$........  #",
"..@@+++   ........@@+++.+++.+++++  .+++..+++ ",
".  +++  .. ......  +++  .+++.+++  .+++  . +++",
"..+++  ...........+++  ...+++.+...+++  ....++",
"....++..............++..............++.......",
"...++   ...........++  ..  .####@..++ .......",
"  ....   .......  ....++++ ####@@....... @@  ",
".  ....  ..####..  ... ++++###  ......... ..."};
