/* XPM */
static char * grass_xpm[] = {
"45 45 5 1",
" 	c #327404",
".	c #347704",
"+	c #337903",
"@	c #327105",
"#	c #357B05",
" ..... +++.....  ..... +++       ..... +++   ",
"@@@.............#### ....       @@@......   .",
".@@@  .........+###@@......@  ...@@@  .....@ ",
"@++++ ....####.+++  ......@@ ...@++++ ....@@ ",
"..++@ ...  ###+++++++ .. @@ ...@..++@ .. @@ .",
"...@@ ....  #+++.+++  .. ..........@@ .. ....",
"..@@+++..+++ ++..++ +++   ........@@+++   ...",
".  +++  . +++.+..+.+++  .. ......  +++  .. ..",
"..+++  ....+++....+++  ...........+++  ......",
"....++..............++..............++.......",
"...++ ....... .....++   ...........++  ..  .#",
"........ @@     ......   .......  ....++++ ##",
"......... .... ........  ..####..  ... ++++##",
"..  .........  ...  ......  ##++  ....  +++++",
"   ..+++....@@@    ..++....  +++ +++.+++.+++.",
"..... +++ .@@@  ..... ++..+++++++++@@ +++.+.+",
" ..... +++       ..... +   +++.+++@    +++...",
"@@@......       @@@...... @@+++.+@@..........",
".@@@  .....@  ...@@@  ..@@@  ...  ... .......",
"@++++ ....@@ ...@++++ .@ ####.......@@....###",
"..++@ .. @@ ...@..++@ ....###+.....  ....  ##",
"...@@ .. ..........@@ .....#++.+++........  #",
"..@@+++   ........@@+++.+++.+++++  .+++..+++ ",
".  +++  .. ......  +++  .+++.+++  .+++  . +++",
"..+++  ...........+++  ...+++.+...+++  ....++",
"....++..............++..............++.......",
"...++ ....... .....++   ...........++  ..  .#",
"........ @@     ......   .......  ....++++ ##",
"......... .... ........  ..####..  ... ++++##",
"..  .........  ...  ......  ##++  ....  +++++",
"   ..+++....@@@    ..++....  +++ +++.+++.+++.",
"..... +++ .@@@  ..... ++..+++++++++@@ +++.+.+",
" ..... +++       ..... +   +++.+++@    +++...",
"@@@......       @@@...... @@+++.+@@..........",
".@@@  .....@  ...@@@  ..@@@  ...  ... .......",
"@++++ ....@@ ...@++++ .@ ####.......@@....###",
"..++@ .. @@ ...@..++@ ....###+.....  ....  ##",
"...@@ .. ..........@@ .....#++.+++........  #",
"..@@+++   ........@@+++.+++.+++++  .+++..+++ ",
".  +++  .. ......  +++  .+++.+++  .+++  . +++",
"..+++  ...........+++  ...+++.+...+++  ....++",
"....++..............++..............++.......",
"...++   ...........++  ..  .####@..++ .......",
"  ....   .......  ....++++ ####@@....... @@  ",
".  ....  ..####..  ... ++++###  ......... ..."};
