/* XPM */
static char * tree_xpm[] = {
"45 45 10 1",
" 	c #327404",
".	c #347704",
"+	c #337903",
"@	c #613C15",
"#	c #814D16",
"$	c #327105",
"%	c #357B05",
"&	c #4B2A1B",
"*	c #2F2C14",
"=	c #A9651E",
" ..... +++.....  ..... ++@##@    ..... +++   ",
"$$$.............%%%% ...@##&    $$$......   .",
".$$$  .........+%%%$$..@##&$  ...***  .....$ ",
"$++++ ....%%%%.+++  ...@#&$$ ...*@@*+ ....$$ ",
"..++$ ...  %%%+++++++ .@#&$ ...$*@&+$ .. $$ .",
"...$$ ....  %+++.+++  .@#&......*@&$$ .. ....",
"..$$+++..+++ ++..++ +++@#&......*@&$+++   ...",
".  +++  . +++.+..+.+++ @#& ....*@@&+++  .. ..",
"..+++  ....+++....+++  @==&...*@@&+++  ......",
"....++..............++.@===&.*@@&...++.......",
"...++ .......&&....++   @===&@@&...++  ..  .%",
"........ $$  &@*......   @===@&.  ....++++ %%",
"......... ...&@*.......  .@===&..  ... ++++%%",
"..  .........&@*..  &&.... @==&+  ....  +++++",
"   ..+++....$&@*   .&@*....@##&+ +++.+++.+++.",
"..... +&& .$$@##*...&@*+..+@##&++++$$ +++.+.+",
" ..... #=&    @##*..&@*+   @##&+++$    +++...",
"$$$....#==&    @##**&@*.. $@##&.+$$.&&.......",
".$$$  ..#==&  ..@#####*.$$$@##&.  .@#&.......",
"$++++ ...#==&...$@@@###* %%@##&....@#&....%%%",
"..++$ .. $#==&.$..++&##@*.%@##&....@#&.@@@ %%",
"...$$ .. ..@#&.....$$&@@@**===&+++.@#&@==@  %",
"..$$+++   .@#&....$$++&@@@===&+++  @#@==&+++ ",
".  +++  .. @#&...  &&+ &@===&+++  .@#==&. +++",
"..+++  ....@#&..@@+&&& &===&+.+...+@==&....++",
"....++.....@#&..@#&&&&&===&..**....@#&.......",
"...++ .....@==@.@#&+&&&##*...**....@#& ..  .%",
"........ $$@===@@#&..&&##*..***.  @==&++++ %%",
"...&&&... ..@===@#&...@##*.***%.@@==&. ++++%%",
".. &##&......@====& ..@##****%+@##=&.. @@@+++",
"   .@#&&&&..$$@@==&..+@##*** +@##&&+.+@##@++.",
"....@#####&$$$  @##&. @##**++&##&++$$@##&.+.+",
" ....@@@###&    @##&..@##* +&##&&&&&&##&++...",
"$$$.....@###&   $@##&.@##*$$&##@@@@@##&......",
".$$$  ...@###&&&&&##& @##*$&@@&&&&&&&&.......",
"$++++ ....@##@@@@@##& @##*%&@@&.....$$....%%%",
"..++$ .. $$&@@@@@@@##&&##**@@*.....  ....  %%",
"...$$ .. ...&&&&&&&##&&##**@@*.+++........  %",
"..$$+++   ........&##&&##**@@*+++  .+++..+++ ",
".  +++  .. ...... &##&&##**@@*++  .+++  . +++",
"..+++  ...........&##&&##**@@*+...+++  ....++",
"....++............&##&&##**##*......++.......",
"...++   ..........&##&&##**##*%%$..++ .......",
"  ....   .......  &##&++++*##*%$$....... $$  ",
".  ....  ..%%%%.. &##& ++++%%%  ......... ..."};
