/* XPM */
static char * wizard_xpm[] = {
"45 45 17 1",
" 	c #327105",
".	c #347704",
"+	c #357B05",
"@	c #327404",
"#	c #337903",
"$	c #141412",
"%	c #261A26",
"&	c #932D8B",
"*	c #5F2E5C",
"=	c #804A1E",
"-	c #F09A53",
";	c #463D35",
">	c #47280D",
",	c #7C6C5E",
"'	c #FDFDFD",
")	c #CBC3BC",
"!	c #432341",
"  .............++++@....@@@@@@@   ......@@@..",
"   @@.........#+++  ...... @@...   @@..... @@",
"####@....++++.###@@......  @... ####@....  @.",
".## @...@@+++#######@..@  @... ..## @..@  @..",
"..  @....@@+###.###@@..@..........  @..@.....",
".  ###..###@##..##@###@@@........  ###@@@....",
"@@###@@.@###.#..#.$$$$$$.@......@@###@@..@...",
".###@@....###....%&&&&&*$........###@@.......",
"...##............%*&&&&&&$.........##........",
"..##@.......@....%%*&&&&&&$.......##@@..@@.++",
".......@  @@@@@..%*&&&&&***$...@@....####@+++",
"........@....@...%&&&&&&&&&&$+..@@...@####+++",
".@@.........@@..%=====-------$#@@....@@#####@",
"@@..###....   @%%=====--------$$###.###.###.#",
"....@###@.   %%*******&*&&&&&&&&$$  @###.#.##",
".....@###@@%%*********&*&&&&&&&&&&$@@@###....",
"  ......@@%****&&&&&&;;>>===,,$$$$$..........",
"   @@.....%%%%%%%,,,,,,-----,,$@@...@........",
"####@....  @... $'''')=-----$$.....  ....++++",
".## @..@  @... .$'''')------$.....@@....@@+++",
"..  @..@........$''''))-)''')$###........@@+#",
".  ###@@@......$&&&*'))''==='$##@@.###..###@#",
"@@###@@..@....$&&&&&*))''''''$$@@.###@@.@###.",
".###@@........$&&&&&*&&''''''$$..###@@....###",
"...##.........$&&&&&*&&''''''$$....##........",
"..##@.......@..$&&&**&&''''''$$...##@@..@@.++",
".......@  @@@@@.$$!!**&)'''''$.@@....####@+++",
"........@....@...$!!!**&)''')$..@@...@####+++",
".@@.........@@...@$>===-=----$#@@....@@#####@",
"@@..###....   @@@@$>===-=----$#@###.###.###.#",
"....@###@.   @@...$$!!*!*!***$####  @###.#.##",
".....@###@@@@@@@..$$&&*&&&&&&$### @@@@###....",
"  ......@@@@@@@  $!*&&*&&&&&&*$#  ...........",
"   @@..... @@... $**&&&&&&&&&*$@@...@........",
"####@....  @... #$**&&&&&&&&&&$....  ....++++",
".## @..@  @... .$!*&&&&&&&&&&&$...@@....@@+++",
"..  @..@........$**&&&*&&&&&&&$##........@@+#",
".  ###@@@......!!**&&&*&&&&&&&*$@@.###..###@#",
"@@###@@..@......@@###@@.###.###@@.###@@.@###.",
".###@@...........###@@...###.#...###@@....###",
"...##..............##..............##........",
"..##@@@...........##@@..@@.++++ ..##@.......@",
"@....@@@.......@@....####@++++  .......@  @@@",
"@@....@@..++++..@@...@####+++@@.........@....",
"@........@@++##@@....@@#####@++++ ..........@"};
