/* XPM */
static char * mushrooms_xpm[] = {
"45 45 26 1",
" 	c #327404",
".	c #347704",
"+	c #337903",
"@	c #327105",
"#	c #357B05",
"$	c #7D3615",
"%	c #DA6731",
"&	c #C2531E",
"*	c #2F2C14",
"=	c #C6AB9F",
"-	c #A14215",
";	c #651E16",
">	c #7F5C4D",
",	c #155770",
"'	c #1491BD",
")	c #177B9E",
"!	c #A48477",
"~	c #176885",
"{	c #0E325D",
"]	c #B77036",
"^	c #F1A93D",
"/	c #E29A2E",
"(	c #934623",
"_	c #654A2C",
":	c #8D7B4C",
"<	c #BEA974",
" ..... +++.....  ..... +++       ..... +++   ",
"@@@.............#### ....       @@@......   .",
".@@@  .........+###@@......@  ...@@@  .....@ ",
"@++++ ....####.+++  ......@@ ...@++++ ....@@ ",
"..++@ ...  ###+++++++ .. @@ ...@..++@ .. @@ .",
"...@@ ....  #+++.+++  .. ..........@@ .. ....",
"..@@+++..+++ ++..++ +++   ........@@+++   ...",
".  +++  . +++.+..+.+++  .. ......  +++  .. ..",
"..+++  ....$$$....+++  ...........+++  ......",
"....++....$%%&*.....++..............++.......",
"...++ ...$%%%%&*...++   ...........++  ..  .#",
"........ $%==%-*......   .......  ....++++ ##",
"........$%%==%$;*......  ..####..  ... ++++##",
"..  ....$%%%%&;;*.  ......  ##++  ....  +++++",
"   ..++$%%=%%-;;;* ..++....  +++ +++.+++.+++.",
"..... +$=%%%%$;;>*... ++..++++,,,++@@ +++.+.+",
" ..... $==%%&;;>>*.... +   ++,'')*@    +++...",
"@@@.....>==!!>>>*@@...... @@,'''')*..........",
".@@@  ...>>>>***.@@@  ..@@@ ,'=='~*.. .......",
"@++++ ....@>!*..@++++ .@ ##,''==',{*@@....###",
"..++@ .. @@>!*.@..++@ ....#,''''){{* ....  ##",
"...@@ .. ...!......@@ ....,''=''~{{{*.....  #",
"..@@+++   ........@@+++.++,='''',{{>*++..+++ ",
".  +++  .. ......  +++  .+,==''){{>>*+  . +++",
"..+++  ...........+++  ...+>==!!>>>*+  ....++",
"....++..............++......>>>>***.++.......",
"...++ ....... ]]]]]]]]  ......>!*..++  ..  .#",
"........ @@  ]^^////^/]  .....>!* ....++++ ##",
"......... ..]/^^///////* ..####!.  ... ++++##",
"..  .......(/////////^//*.  ##++  ....  +++++",
"   ..+++...(]////^/////]*..  +++ +++.+++.+++.",
"..... +++ .(]]////////]]*.+++++++++@@ +++.+.+",
" ..... +++  (]]]]]]](((*   +++.+++@    +++...",
"@@@......    *(]]]]]((*.. @@+++.+@@..........",
".@@@  .....@  ********..@@@  ...  ... .......",
"@++++ ....@@ ..._::*+ .@ ####.......@@....###",
"..++@ .. @@ ...@_<<*@ ....###+.....  ....  ##",
"...@@ .. ......._<<*@ .....#++.+++........  #",
"..@@+++   ......_<<*+++.+++.+++++  .+++..+++ ",
".  +++  .. ......<<+++  .+++.+++  .+++  . +++",
"..+++  ...........+++  ...+++.+...+++  ....++",
"....++..............++..............++.......",
"...++   ...........++  ..  .####@..++ .......",
"  ....   .......  ....++++ ####@@....... @@  ",
".  ....  ..####..  ... ++++###  ......... ..."};
